<svg width="240" height="240" viewBox="0 0 240 240" fill="none" xmlns="http://www.w3.org/2000/svg">
<path d="M237.5 120C237.5 184.893 184.893 237.5 120 237.5C55.1065 237.5 2.5 184.893 2.5 120C2.5 55.1065 55.1065 2.5 120 2.5C184.893 2.5 237.5 55.1065 237.5 120Z" fill="white" stroke="black" stroke-width="5"/>
<path d="M227.5 120C227.5 179.371 179.371 227.5 120 227.5C60.6294 227.5 12.5 179.371 12.5 120C12.5 60.6294 60.6294 12.5 120 12.5C179.371 12.5 227.5 60.6294 227.5 120Z" fill="black" stroke="black" stroke-width="5"/>
<path d="M81.5828 55.9286L85.7877 60.5987L70.3206 74.5253L66.1157 69.8552L81.5828 55.9286ZM46.1124 43.7061L72.2765 72.7643L66.2892 78.1552L40.1252 49.0971L46.1124 43.7061ZM68.264 45.1903L72.3612 49.7406L58.9098 61.8523L54.8127 57.302L68.264 45.1903ZM59.6037 31.5585L63.8266 36.2485L48.3795 50.1572L44.1566 45.4672L59.6037 31.5585Z" fill="white"/>
<path d="M114.608 30.0923H118.744C120.069 30.0923 121.161 29.8685 122.02 29.4209C122.879 28.9554 123.515 28.3109 123.927 27.4873C124.356 26.6458 124.571 25.6701 124.571 24.5601C124.571 23.5575 124.374 22.6712 123.98 21.9014C123.604 21.1136 123.023 20.5049 122.235 20.0752C121.447 19.6276 120.453 19.4038 119.254 19.4038C118.305 19.4038 117.428 19.5918 116.622 19.9678C115.816 20.3438 115.172 20.8719 114.688 21.5522C114.205 22.2326 113.963 23.0562 113.963 24.0229H106.202C106.202 21.8745 106.775 20.0036 107.921 18.4102C109.085 16.8167 110.642 15.5724 112.594 14.6772C114.545 13.7821 116.694 13.3345 119.039 13.3345C121.689 13.3345 124.007 13.7642 125.995 14.6235C127.982 15.465 129.531 16.7093 130.641 18.3564C131.751 20.0036 132.306 22.0446 132.306 24.4795C132.306 25.7148 132.019 26.9144 131.446 28.0781C130.873 29.224 130.05 30.2624 128.976 31.1934C127.919 32.1064 126.63 32.8405 125.108 33.3955C123.587 33.9326 121.877 34.2012 119.979 34.2012H114.608V30.0923ZM114.608 35.9736V31.9722H119.979C122.11 31.9722 123.98 32.2139 125.592 32.6973C127.203 33.1807 128.555 33.8789 129.647 34.792C130.739 35.6872 131.563 36.7524 132.118 37.9878C132.673 39.2052 132.95 40.557 132.95 42.043C132.95 43.8691 132.601 45.4984 131.903 46.9307C131.205 48.3451 130.22 49.5446 128.949 50.5293C127.695 51.514 126.227 52.266 124.544 52.7852C122.861 53.2865 121.026 53.5371 119.039 53.5371C117.392 53.5371 115.772 53.3133 114.178 52.8657C112.603 52.4002 111.17 51.7109 109.881 50.7979C108.61 49.8669 107.59 48.7031 106.82 47.3066C106.068 45.8923 105.692 44.2183 105.692 42.2847H113.453C113.453 43.2873 113.704 44.1825 114.205 44.9702C114.706 45.758 115.396 46.3757 116.273 46.8232C117.168 47.2708 118.162 47.4946 119.254 47.4946C120.489 47.4946 121.546 47.2708 122.423 46.8232C123.318 46.3577 123.998 45.7132 124.464 44.8896C124.947 44.0482 125.189 43.0724 125.189 41.9624C125.189 40.5301 124.929 39.3843 124.41 38.5249C123.891 37.6476 123.148 37.0031 122.181 36.5913C121.214 36.1795 120.069 35.9736 118.744 35.9736H114.608Z" fill="white"/>
<path d="M183.997 65.3955L179.935 69.9059L159 51.0555L161.865 47.3114L191.284 39L195.855 43.1151L183.448 46.9409L168.49 51.4329L183.997 65.3955ZM197.092 44.2292L170.928 73.2873L165.18 68.112L191.344 39.0539L197.092 44.2292Z" fill="white"/>
<circle cx="120.5" cy="120.5" r="64.5" fill="white"/>
<circle cx="120.5" cy="120.5" r="64.5" fill="white"/>
<circle cx="120.5" cy="120.5" r="56" fill="white"/>
<circle cx="120.5" cy="120.5" r="56" fill="white"/>
<circle cx="120.5" cy="120.5" r="56" stroke="black" stroke-width="3"/>
<line x1="121.5" y1="64" x2="121.5" y2="175" stroke="black" stroke-width="3"/>
<line x1="175.5" y1="121" x2="64.5" y2="121" stroke="black" stroke-width="3"/>
<path d="M91.8216 93.9721C93.1702 92.9232 94.1489 91.9623 95.7552 91.4269" stroke="black" stroke-width="13" stroke-linecap="round"/>
<path d="M90.4333 93.9721C87.4288 93.9721 84.5889 93.3376 82.3347 95.5918C80.8891 97.0375 79.3733 98.5088 77.6555 99.654C76.3597 100.518 75.8103 102.503 75.2131 103.922C74.5753 105.437 74.75 107.085 73.7734 108.55" stroke="black" stroke-width="13" stroke-linecap="round"/>
<path d="M96.9121 106.236C95.1555 104.606 94.0504 102.598 92.4386 100.875C91.7992 100.192 91.3415 100.11 90.5104 100.49C88.283 101.508 85.5348 104.131 88.6079 106.094C89.3634 106.577 91.115 107.504 92.053 107.328C94.3934 106.889 94.3411 101.882 94.3411 100.258C94.3411 98.9181 94.5583 96.058 93.1842 95.1419C92.0968 94.417 90.142 95.078 89.1992 95.669C84.9005 98.3637 83.8199 105.459 88.505 108.215C92.0148 110.28 96.022 110.424 98.9175 107.29C101.664 104.317 103.681 98.9572 103.005 94.872C102.007 88.8397 94.9991 95.1453 93.0299 97.1344C90.7475 99.44 88.341 102.635 90.0733 105.953C91.4443 108.579 94.4037 110.276 97.3749 110.015C101.861 109.621 104.625 104.097 106.18 100.477C107.219 98.0587 109.109 93.3531 106.72 91.1184C102.62 87.2828 95.9709 93.984 95.7423 98.0985C95.6221 100.262 96.8942 102.148 99.1231 102.366C102.621 102.709 103.269 98.5622 103.481 95.9903C103.566 94.9579 104.439 91.684 102.735 91.684C99.4374 91.684 97.1594 94.0023 95.7037 96.7488C94.92 98.2275 93.3773 101.441 95.3052 102.726C97.0363 103.88 98.9032 102.489 99.7273 100.888C100.247 99.8775 101.232 97.2225 100.126 96.2089C98.9641 95.144 96.8295 97.4343 96.3979 98.2528C95.8422 99.3068 95.3755 101.747 97.1435 102.019C99.2827 102.348 99.9095 97.328 100.087 96.106C100.364 94.2006 100.418 91.0495 98.0305 90.4242C96.4704 90.0156 94.2886 90.3715 92.9528 91.2855C92.1828 91.8123 94.0369 91.5716 94.1097 91.5554C98.2301 90.6398 101.275 86.4582 103.288 83.0712C104.51 81.0149 106.062 78.7549 106.348 76.3096C106.462 75.3314 105.016 75.6811 104.394 75.7439C100.011 76.1866 95.1752 77.4643 91.3588 79.729C86.7361 82.4721 84.1859 87.9852 84.2886 93.3294C84.3257 95.2542 85.1563 99.09 87.7209 98.9984C91.9186 98.8485 95.5437 94.1455 97.8891 91.2083C99.655 88.9968 102.326 85.6716 102.658 82.6856C102.722 82.1149 100.134 82.4205 99.8559 82.4542C97.2071 82.7752 94.5981 84.4759 92.9528 86.542C92.3075 87.3524 91.3645 89.5522 93.1456 89.7557C96.2114 90.1061 97.5629 85.3144 98.1205 83.1612C98.2022 82.8455 99.3141 79.1181 98.5961 78.842C97.1296 78.2779 94.6114 81.0877 93.8269 81.8371C91.0394 84.5005 87.5204 88.2888 87.1167 92.3524C86.9547 93.9836 87.8683 95.8775 89.5077 96.4145C92.1574 97.2826 93.5701 94.1428 94.264 92.1982C94.36 91.9291 96.0275 87.4587 95.0096 87.3133C93.1246 87.044 92.0565 92.7838 91.9244 93.7922C91.258 98.8812 94.0286 102.074 98.3518 104.436C100.903 105.83 103.958 106.186 106.116 103.922C106.189 103.845 107.696 102.053 106.939 101.891C105.107 101.498 104.079 105.385 103.957 106.518C103.649 109.353 106.663 116.401 110.513 113.434C112.608 111.819 114.397 105.13 110.05 105.593C105.259 106.103 105.21 111.187 108.661 113.64C109.931 114.543 111.55 115.216 112.724 113.743C114.97 110.922 113.925 105.929 113.109 102.778C112.597 100.799 111.297 99.0855 109.047 99.1526C106.964 99.2148 104.818 100.931 104.484 103.009C104.233 104.57 104.781 106.165 106.438 106.557C109.767 107.345 112.302 103.426 113.263 100.849C113.981 98.9253 114.348 96.8909 114.472 94.8463C114.484 94.6387 114.654 93.6066 114.33 93.4322C112.575 92.4872 110.012 98.1958 109.703 99.1398C108.879 101.655 108.328 104.883 109.87 107.238C110.701 108.509 111.855 108.89 112.929 107.65C114.525 105.809 115.036 103.099 114.369 100.785C114.052 99.6863 113.434 100.247 112.878 101.017C111.684 102.67 111.585 104.864 111.772 106.827C111.907 108.239 112.427 109.023 113.161 107.47C113.887 105.932 114.601 104.35 115.192 102.765C115.8 101.132 117.526 99.9473 117.724 98.1628C117.922 96.3779 117.737 94.6312 117.737 92.8152C117.737 89.263 117.737 85.7107 117.737 82.1585C117.737 77.5736 117.737 72.9887 117.737 68.4038C117.737 68.3275 117.792 67.59 117.917 67.9796C118.194 68.8461 117.694 70.0821 117.506 70.9105C116.871 73.6965 116.276 76.5197 115.834 79.3433C115.526 81.3183 115.192 83.1187 115.192 85.128C115.192 86.5506 115.192 87.9732 115.192 89.3958C115.192 91.7775 115.727 93.9042 116.169 96.2346C116.652 98.7826 116.9 101.834 117.853 104.269C118.225 105.222 118.401 106.312 117.955 107.277C116.941 109.475 117.043 111.568 117.043 113.987C117.043 114.627 117.434 115.113 117.506 115.723C117.542 116.029 118.388 116.648 118.2 116.648C117.02 116.648 113.549 117.342 114.729 117.342C115.495 117.342 116.341 117.21 117.043 117.522C117.743 117.834 118.356 117.874 117.274 117.394C116.384 116.998 114.758 117.582 113.855 117.754C113.098 117.898 112.26 117.805 111.49 117.805" stroke="black" stroke-width="6" stroke-linecap="round"/>
<path d="M109.638 119.193C107.079 117.741 105.56 116.417 102.697 116.417C100.7 116.417 98.7574 116.268 96.7964 115.967C94.973 115.686 92.8603 115.954 91.0246 115.954C88.745 115.954 86.4654 115.954 84.1858 115.954" stroke="black" stroke-width="6" stroke-linecap="round"/>
<path d="M85.8055 109.475C88.5652 110.075 91.0028 111.5 93.6727 112.367C95.3632 112.917 97.009 113.979 98.7632 114.283C100.257 114.541 101.695 114.103 103.16 114.103" stroke="black" stroke-width="6" stroke-linecap="round"/>
<path d="M111.258 83.3283C110.848 84.5772 110.613 85.7664 110.333 87.0305" stroke="black" stroke-width="6" stroke-linecap="round"/>
<path d="M107.556 81.2458C106.819 85.9144 107.325 90.4646 107.325 95.1291" stroke="black" stroke-width="6" stroke-linecap="round"/>
<path d="M110.333 85.4108C112.055 88.6961 112.565 92.1671 113.289 95.7718C113.64 97.5192 114.266 99.3493 114.266 101.145" stroke="black" stroke-width="6" stroke-linecap="round"/>
<path d="M112.184 76.3867C111.055 78.0458 109.026 81.6304 106.862 82.1714" stroke="black" stroke-width="6" stroke-linecap="round"/>
<path d="M113.109 73.1473C110.537 73.932 108.195 75.3906 105.705 76.3867" stroke="black" stroke-width="6" stroke-linecap="round"/>
<path d="M114.035 68.5195C111.499 70.0037 108.452 70.5787 105.988 72.2217C104.302 73.3454 102.777 74.2243 101.308 75.6925" stroke="black" stroke-width="6" stroke-linecap="round"/>
<path d="M106.862 69.6765C104.241 70.7736 102.176 73.0313 99.9201 74.5356" stroke="black" stroke-width="6" stroke-linecap="round"/>
<path d="M105.242 81.0144C103.933 81.0144 102.779 80.9646 101.54 80.5517" stroke="black" stroke-width="6" stroke-linecap="round"/>
<path d="M107.325 69.9078C108.379 69.9078 109.316 69.6765 110.333 69.6765" stroke="black" stroke-width="6" stroke-linecap="round"/>
<path d="M97.1435 75.2298C98.4117 74.6908 98.4091 74.4906 97.1949 74.5356C95.9584 74.5814 97.561 74.0216 98.159 73.6229C98.4519 73.4276 99.02 73.0002 99.3417 72.9287C99.8602 72.8135 100.457 73.0662 100.949 72.813C101.193 72.6869 102.64 71.3836 102.054 71.579C101.303 71.8293 100.654 72.7693 100.036 73.2501C99.154 73.936 97.8365 74.3603 96.8607 74.9984C96.2079 75.4252 95.6129 75.8348 95.061 76.3867C94.9271 76.5205 93.5579 77.8938 93.4799 77.6208C93.3818 77.2774 94.1884 75.8937 94.4954 75.7182C94.6492 75.6303 94.9652 75.6925 95.1381 75.6925C95.4645 75.6925 94.46 75.7453 94.1869 75.9239C93.0364 76.6761 92.6791 78.2406 91.603 79.0476C90.3834 79.9624 90.6561 78.2506 91.1274 77.5436" stroke="black" stroke-width="6" stroke-linecap="round"/>
<path d="M89.0449 83.0969C87.9689 82.3144 87.2195 81.978 87.2195 80.5388C87.2195 79.5049 89.3715 79.0101 88.2479 79.9089C87.1101 80.8192 86.7668 82.188 85.9212 83.3155C85.366 84.0557 84.1629 85.5202 84.9956 83.6882C85.4175 82.7603 86.1795 81.6867 85.2399 83.1483C84.6823 84.0157 84.4414 84.9184 83.9544 85.7707C83.5304 86.5127 82.7436 86.9204 82.3861 87.7247C82.046 88.4899 81.6405 89.6546 81.6405 90.5013" stroke="black" stroke-width="6" stroke-linecap="round"/>
<path d="M78.1697 94.2035C78.1697 91.9742 78.2323 88.758 80.2008 87.2619C80.9923 86.6603 81.7886 85.208 82.3476 84.3695C82.8504 83.6153 84.3313 82.7928 85.1114 82.4028" stroke="black" stroke-width="6" stroke-linecap="round"/>
<path d="M74.4675 97.4429C74.6 96.6318 74.7185 95.8125 74.9432 95.0262C74.995 94.8449 75.7559 94.8113 75.9587 94.5506C76.2265 94.2062 76.2954 93.6965 76.3186 93.278C76.3454 92.7969 76.919 92.8006 77.2442 92.5838" stroke="black" stroke-width="6" stroke-linecap="round"/>
<path d="M72.6164 98.5999C72.2532 100.125 71.7307 100.612 73.2078 99.4483C73.7789 98.9983 74.3863 98.4544 74.6989 97.79C75.094 96.9505 75.5765 96.1763 75.9844 95.3605C76.2435 94.8423 76.603 93.2515 77.0128 93.0466" stroke="black" stroke-width="6" stroke-linecap="round"/>
<path d="M76.7814 91.8896L75.3931 92.121" stroke="black" stroke-width="6" stroke-linecap="round"/>
<path d="M82.5661 104.847C80.73 106.459 80.9464 107.933 80.9464 110.156C80.9464 111.137 82.4242 111.987 83.3117 112.02C83.8801 112.041 84.079 112.278 84.5972 112.432C85.0981 112.58 85.9257 112.217 86.4997 112.265C87.5914 112.356 88.5822 112.876 88.5822 114.051C88.5822 119.8 82.4448 116.813 79.3267 118.216C78.0772 118.779 75.6143 118.268 74.2361 118.268C72.7707 118.268 71.3052 118.268 69.8398 118.268C69.2967 118.268 68.3041 118.526 68.4386 117.921C68.6348 117.038 68.6828 115.994 68.6828 115.08C68.6828 114.305 68.9142 113.633 68.9142 112.83C68.9142 111.69 69.3468 111.155 69.8398 110.169" stroke="black" stroke-width="6" stroke-linecap="round"/>
<path d="M70.7654 115.26C72.5779 115.26 74.3904 115.26 76.203 115.26C77.3265 115.26 78.1675 114.789 79.2238 114.437C81.3351 113.733 83.6056 112.946 85.8055 112.946" stroke="black" stroke-width="6" stroke-linecap="round"/>
<path d="M85.8055 117.111C88.7255 117.695 91.3956 118.268 94.3668 118.268C96.0512 118.268 97.5016 118.987 99.1488 119.206C100.544 119.392 101.867 119.425 103.275 119.425C103.781 119.425 104.549 119.568 105.011 119.373C105.562 119.141 106.267 118.731 106.862 118.731" stroke="black" stroke-width="6" stroke-linecap="round"/>
<path d="M139.025 137.242C138.437 139.004 138.243 140.795 137.752 142.563C137.571 143.215 137.428 144.593 137.662 145.237C138.272 146.914 140.844 146.983 142.238 146.96C146.258 146.892 147.975 144.238 148.511 140.481" stroke="black" stroke-width="6" stroke-linecap="round"/>
<path d="M147.355 137.473C147 137.473 144.598 137.112 144.578 137.807C144.542 139.073 144.952 140.072 145.503 141.175" stroke="black" stroke-width="11" stroke-linecap="round"/>
<path d="M147.355 139.093C145.351 139.138 143.651 139.335 142.315 140.944C141.178 142.314 140.053 144.65 140.053 146.446C140.053 148.514 142.411 148.348 143.935 148.348C146.193 148.348 147.86 148.382 149.848 147.14C151.699 145.983 153.732 144.898 155.402 143.489C156.493 142.568 158.353 141.612 159.155 140.43C160.413 138.576 162.115 135.813 161.688 133.462C161.59 132.926 159.322 132.661 158.911 132.627C156.837 132.454 154.617 132.534 152.535 132.627C149.269 132.772 145.765 134.043 142.753 135.275C141.84 135.648 141.014 135.47 140.092 135.75C139.121 136.046 138.137 136.59 137.289 137.139C135 138.62 132.362 139.418 130 140.661C127.846 141.795 127.918 143.391 127.918 145.623C127.918 147.414 127.918 149.205 127.918 150.996C127.918 153.581 127.99 156.055 127.507 158.581C127.307 159.626 127.42 160.718 127.172 161.769C127.011 162.454 126.426 163.118 126.311 163.748C126.115 164.825 126.067 166.368 126.067 167.425C126.067 168.336 125.836 168.762 127.108 168.337C128.824 167.766 130.693 166.987 132.314 166.165C136.354 164.117 139.727 161.475 144.167 160.2C146.165 159.626 148.097 159.443 150.003 158.529C151.546 157.789 153.158 157.171 154.643 156.331C158.723 154.025 159.997 149.112 162.51 145.482C164.685 142.341 166.097 138.014 166.097 134.234C166.097 133.012 166.628 131.996 166.56 130.763C166.475 129.236 161.909 129.374 160.955 129.374C153.428 129.374 145.968 129.837 138.446 129.837C137.246 129.837 135.814 130.093 134.654 130.416C133.776 130.66 132.788 130.637 131.967 130.994C131.179 131.337 130.282 131.445 129.512 131.83C128.364 132.403 127.955 133.575 127.558 134.709C127.126 135.942 127.224 137.197 127.224 138.488C127.224 140.009 126.067 138.298 126.067 137.46C126.067 136.044 125.967 134.589 126.08 133.179C126.125 132.618 126.252 130.419 126.761 130.12C127.934 129.43 128.88 128.428 130 127.652C130.858 127.058 131.011 126.135 132.134 126.135C134.431 126.135 136.711 126.366 139.025 126.366C141.158 126.366 143.172 125.439 145.259 125.107C146.707 124.876 148.206 124.978 149.668 124.978C151.062 124.978 153.767 124.625 154.99 125.441" stroke="black" stroke-width="11" stroke-linecap="round"/>
<path d="M140.644 135.853C138.927 139.289 137.467 142.794 136.042 146.356C135.419 147.914 135.159 149.601 134.41 151.099C133.973 151.973 133.291 152.866 133.021 153.811C132.624 155.202 132.55 157.182 133.188 158.529C133.969 160.178 138.74 155.326 139.307 154.878C140.366 154.045 141.428 153.022 142.74 152.629C143.925 152.273 144.872 151.8 145.966 151.253C148.413 150.03 151.653 149.212 153.229 146.818C154.123 145.461 156.449 140.326 154.373 139.041C153.694 138.621 153.062 138.125 152.394 137.704C151.346 137.045 149.221 137.473 148.049 137.473" stroke="black" stroke-width="11" stroke-linecap="round"/>
<path d="M129.769 128.912C131.886 129.109 133.925 129.48 136.017 129.837" stroke="black" stroke-width="11" stroke-linecap="round"/>
<path d="M167.485 126.829C164.944 126.829 162.425 126.598 159.849 126.598" stroke="black" stroke-width="11" stroke-linecap="round"/>
<path d="M130 132.614C127.748 132.524 127.189 131.084 126.427 129.22C126.192 128.646 125.907 128.088 125.656 127.523C125.515 127.207 125.7 126.85 125.501 126.546C125.193 126.075 124.304 125.22 124.781 124.567C125.335 123.809 127.258 123.821 128.149 123.821" stroke="black" stroke-width="6" stroke-linecap="round"/>
<path d="M126.298 172.644C125.166 172.672 125.459 172.707 125.039 173.389C124.716 173.913 124.353 173.912 124.794 173.814C125.87 173.575 127.036 173.613 128.098 173.287C130.09 172.674 131.906 171.99 133.703 170.793" stroke="black" stroke-width="6" stroke-linecap="round"/>
<path d="M135.554 170.561C137.753 170.157 139.306 169.344 141.236 168.35C142.21 167.848 143.335 167.511 144.295 166.962C145.231 166.427 146.755 166.665 147.817 166.165C149.197 165.516 150.581 164.88 151.802 163.903C152.278 163.522 153.18 163.519 153.551 162.926C154.025 162.166 154.633 161.549 155.222 160.843" stroke="black" stroke-width="6" stroke-linecap="round"/>
<path d="M156.61 149.042C158.677 148.712 160.769 148.811 162.858 148.811C163.563 148.811 164.175 148.977 164.631 148.438C165.472 147.444 166.375 146.513 167.202 145.52C167.833 144.764 168.642 142.979 168.642 142.049C168.642 140.428 169.568 138.996 169.568 137.357C169.568 136.039 170.798 134.689 171.187 133.424C171.639 131.957 172.344 130.599 172.344 129.027C172.344 127.825 172.771 126.471 173.026 125.325C173.241 124.355 170.897 124.747 170.262 124.747" stroke="black" stroke-width="6" stroke-linecap="round"/>
<path d="M171.65 126.366C171.65 124.578 171.936 124.593 173.386 124.271C174.435 124.038 174.427 123.4 174.427 122.433" stroke="black" stroke-width="6" stroke-linecap="round"/>
</svg>
